PathFileType	4	(X/Y/Z)	/Users/niels/Desktop/University/Third Semester/Perception and Action/Exam/Gymnastics Motion Tracking/Code for Gym Tracking/Analyzed Data/Webcam_Backflip/id5_1_baseline_Sports2D/id5_1_baseline_Sports2D_px_person00.trc
DataRate	CameraRate	NumFrames	NumMarkers	Units	OrigDataRate	OrigDataStartFrame	OrigNumFrames
29.80392156862745	29.80392156862745	9	22	m	29.80392156862745	133	153
Frame#	Time	Hip			RHip			RKnee			RAnkle			RBigToe			RSmallToe			RHeel			LHip			LKnee			LAnkle			LBigToe			LSmallToe			LHeel			Neck			Head			Nose			RShoulder			RElbow			RWrist			LShoulder			LElbow			LWrist		
		X1	Y1	Z1	X2	Y2	Z2	X3	Y3	Z3	X4	Y4	Z4	X5	Y5	Z5	X6	Y6	Z6	X7	Y7	Z7	X8	Y8	Z8	X9	Y9	Z9	X10	Y10	Z10	X11	Y11	Z11	X12	Y12	Z12	X13	Y13	Z13	X14	Y14	Z14	X15	Y15	Z15	X16	Y16	Z16	X17	Y17	Z17	X18	Y18	Z18	X19	Y19	Z19	X20	Y20	Z20	X21	Y21	Z21	X22	Y22	Z22
133	4.4625	1.0041583864426245	-0.5782558037324621	0.0	0.9913028572807857	-0.5783361120582176	0.0	0.9781985404200689	-0.6804944995016259	0.0	0.9476365151822643	-0.7814151671689573	0.0	0.9917485547887537	-0.7969673282668364	0.0	0.980389128108026	-0.8022227894014137	0.0	0.9386436741654769	-0.7937365896491249	0.0	1.0197404899995388	-0.5773944521447583	0.0	1.0504661866026377	-0.6673157463246245	0.0	1.0706439867277642	-0.7659578142770881	0.0	1.1139326829888039	-0.7748681254288333	0.0	1.1102516672620815	-0.7720227271512861	0.0	1.066723637070647	-0.7811217182215955	0.0	0.990566212893265	-0.4325615275400891	0.0	0.9978970129276146	-0.36733060277321317	0.0	1.0170743596906022	-0.4011820197213364	0.0	0.9653251726162329	-0.45619420521653176	0.0	0.9587794828538176	-0.5253361433933984	0.0	0.9656622969123672	-0.5905463534892165	0.0	1.0133969232015327	-0.44835153451539245	0.0	1.031803734511889	-0.5089462585616351	0.0	1.0744352822244985	-0.5479588402470599	0.0
134	4.496052631578947	1.00090912394785	-0.5838720946935093	0.0	0.9881319256695614	-0.5844521326360604	0.0	0.9758484135669264	-0.6862572370945473	0.0	0.9465926487702108	-0.7873781137993482	0.0	0.9898567101955017	-0.8017777972253861	0.0	0.9788749263091582	-0.8070341506331905	0.0	0.9376822772974204	-0.7991587487907047	0.0	1.0161252586541738	-0.5838018936650619	0.0	1.048703799668712	-0.6720005856312486	0.0	1.0705121379483304	-0.7701636269671776	0.0	1.1131471697345647	-0.7780451183935196	0.0	1.1098581735649415	-0.7751371422315976	0.0	1.0669871739469539	-0.7856681927241409	0.0	0.9886219118998822	-0.43792858557530545	0.0	0.9958104867349454	-0.3731743255639284	0.0	1.014235090944678	-0.4070241509051041	0.0	0.9632726267360363	-0.4613665387931925	0.0	0.9579242541819495	-0.5303081556024858	0.0	0.9650796810945372	-0.5946686174297879	0.0	1.0113931606097626	-0.4538659641899097	0.0	1.0356026303333552	-0.5102616665525184	0.0	1.086098946032283	-0.5420329320252958	0.0
135	4.529605263157895	0.9977188206360953	-0.589022795978938	0.0	0.9849840742871927	-0.5901682477422197	0.0	0.9736862393516413	-0.6918075407036304	0.0	0.9455951012500101	-0.7929855532347369	0.0	0.987604359176264	-0.8062784830811508	0.0	0.9768942501277104	-0.8114936367375164	0.0	0.9367458949377808	-0.8042280335109477	0.0	1.0127370317008406	-0.5897549341357096	0.0	1.0469745388310248	-0.6764408370485864	0.0	1.070280306452843	-0.7739206862840103	0.0	1.112465490602	-0.7809062315137657	0.0	1.109638480774466	-0.7778231475030487	0.0	1.0671207708036259	-0.7898299867901833	0.0	0.9867060787449419	-0.4431219243044069	0.0	0.9940170049461311	-0.3787996973908477	0.0	1.0113036818138408	-0.41276406324642295	0.0	0.9614421125231648	-0.4660696345739652	0.0	0.9570671035244981	-0.534416986134303	0.0	0.9654113831574243	-0.5971682290122539	0.0	1.0091637420525112	-0.4592572899962761	0.0	1.0379397491694426	-0.5116937727798886	0.0	1.094151345787374	-0.5356200527093132	0.0
136	4.563157894736842	0.9946064484059453	-0.5931971584339449	0.0	0.981804786081518	-0.5949815462308784	0.0	0.9716917610689926	-0.6964359195726536	0.0	0.9447083347563994	-0.7975798388043006	0.0	0.985404852892445	-0.8098952934075528	0.0	0.9747949324195064	-0.8150839259225102	0.0	0.9359838888437867	-0.8083626811384004	0.0	1.0096383123856765	-0.5946983331563034	0.0	1.045248086198346	-0.680064629918722	0.0	1.0699353717575089	-0.776674495335312	0.0	1.111931402301442	-0.7830751477762372	0.0	1.1094778658729954	-0.7797923162561092	0.0	1.0670853563902762	-0.7930418915553215	0.0	0.9849169266930108	-0.4475087118987333	0.0	0.9925803357391858	-0.38351300746156286	0.0	1.008368689957487	-0.41773190411988215	0.0	0.9597661828732857	-0.46981147762241704	0.0	0.9562246485511328	-0.5371934976414663	0.0	0.9668160855638459	-0.597654496001238	0.0	1.00689231925175	-0.46383339496138826	0.0	1.038329706691346	-0.5132084513141301	0.0	1.0977253278409747	-0.5293288832130859	0.0
137	4.59671052631579	0.991650348882681	-0.5960191171848516	0.0	0.978615378182608	-0.598434150460186	0.0	0.9698232518670857	-0.6996253813704303	0.0	0.9439907466759684	-0.8006568205389069	0.0	0.9836452971107703	-0.812150408456893	0.0	0.9728852416136782	-0.817367835774832	0.0	0.9354866797200084	-0.8111101182380027	0.0	1.006892027949485	-0.5981803712288842	0.0	1.0435812190530076	-0.6823939263749965	0.0	1.0695143029049043	-0.7780249032410993	0.0	1.111536911211316	-0.7842735921182941	0.0	1.109264360617707	-0.7808396823505642	0.0	1.066882234968777	-0.794858950030887	0.0	0.9833251459753014	-0.4505777009810244	0.0	0.9915137494744691	-0.38679074445997996	0.0	1.005535865980962	-0.4213579584695008	0.0	0.9582072990393686	-0.4722021151662011	0.0	0.9553467493983532	-0.5383752842742012	0.0	0.9692036957411607	-0.5960489499972126	0.0	1.0047318307506874	-0.46703775177706625	0.0	1.0365086897683276	-0.5147032139130706	0.0	1.096505110643897	-0.5238437494722257	0.0
138	4.630263157894737	0.988979940991085	-0.5972560474852671	0.0	0.975542308193893	-0.6001352090845758	0.0	0.9680663971312139	-0.7010897760304289	0.0	0.9434987091649653	-0.8019343993993495	0.0	0.982534388193239	-0.8127731450052671	0.0	0.9713635807763114	-0.818077605082862	0.0	0.9352627797903234	-0.8122353557372958	0.0	1.0045557913035552	-0.5998276693557665	0.0	1.0421054276011237	-0.68309794232966	0.0	1.0691294312649362	-0.7777719319836495	0.0	1.1112711060079068	-0.7843066364415157	0.0	1.108999421942566	-0.7807854317585421	0.0	1.0665855583353483	-0.7950367238860659	0.0	0.9819321970347271	-0.4520167574307311	0.0	0.990778150287943	-0.3883320654878926	0.0	1.0029013685814145	-0.4232758937006394	0.0	0.9567113809505491	-0.47299705884932397	0.0	0.954360945155486	-0.5379240866406437	0.0	0.9723051346904718	-0.5925302696512383	0.0	1.0027628919931135	-0.46854922487733475	0.0	1.0324322003066022	-0.5160483176124917	0.0	1.0908366739506716	-0.5197321165758275	0.0
139	4.663815789473684	0.9867087074546385	-0.5968252556834338	0.0	0.9727581455586749	-0.5998840703602769	0.0	0.966430242166387	-0.7007476012079157	0.0	0.9432927651464215	-0.8013736356145348	0.0	0.9821410403589057	-0.8117794388610732	0.0	0.9704337482056097	-0.8172120189689933	0.0	0.9352714773839785	-0.8117345240611247	0.0	1.0026528489107938	-0.599437874798827	0.0	1.0409603347264562	-0.682018808794441	0.0	1.0689403245784646	-0.775953217866147	0.0	1.1111737077050716	-0.7830540790781755	0.0	1.108806644514497	-0.7794924820991458	0.0	1.0663510818914055	-0.7935701193821955	0.0	0.9806732615511877	-0.4517346058303594	0.0	0.9902895981058892	-0.3880670913884996	0.0	1.0005228594627997	-0.42337583131746764	0.0	0.9552147283463099	-0.4721215526311594	0.0	0.9532277598166313	-0.5360061120718158	0.0	0.9757496948201168	-0.5874762984607713	0.0	1.0009907743371207	-0.4683013124840466	0.0	1.0262639565401217	-0.5170845308561139	0.0	1.0816110633669878	-0.5172544206253625	0.0
140	4.697368421052632	0.9848745182151698	-0.5947977824020249	0.0	0.9703943823679206	-0.5977577097359607	0.0	0.9649305573670389	-0.6987141431805277	0.0	0.9433776773720548	-0.7991693649903663	0.0	0.9824834419774555	-0.8094040778926396	0.0	0.9703249646341883	-0.814989853105098	0.0	0.9354332623962789	-0.8097877054324034	0.0	1.0011661465371053	-0.5970885273138937	0.0	1.0402146247739616	-0.6792002332466155	0.0	1.0690545981931612	-0.7728158893613948	0.0	1.1113017227880233	-0.7805238098582981	0.0	1.1088194261648368	-0.7769376099528593	0.0	1.0663381480732865	-0.7906731323046134	0.0	0.9794600142275103	-0.44985636333433887	0.0	0.9899418877529492	-0.38614442617330696	0.0	0.9984037273107712	-0.4217944266930245	0.0	0.9536855991910136	-0.4696908446766307	0.0	0.9519384369539405	-0.532924169432817	0.0	0.9791086975755373	-0.5813948963362998	0.0	0.9993842279688647	-0.46644788946807136	0.0	1.0184323418844219	-0.5175700736241625	0.0	1.0699893168128962	-0.5162917971239953	0.0
141	4.730921052631579	0.9834420642372608	-0.5914019433917701	0.0	0.9684909970893886	-0.5940832437115867	0.0	0.9635960292029596	-0.6952898467531483	0.0	0.9436662086670955	-0.7956900886203239	0.0	0.9834755367665116	-0.8059853512056623	0.0	0.9710727780695225	-0.811726821524092	0.0	0.9356444205004464	-0.8066923803655607	0.0	1.000044714745768	-0.5931217662878284	0.0	1.0398370924040723	-0.6749355086272262	0.0	1.0694300051767085	-0.7687403135800687	0.0	1.111631498074614	-0.7769369844040577	0.0	1.1090566467673844	-0.7732937770756128	0.0	1.0665788060243022	-0.7867195883128386	0.0	0.9782407860260773	-0.4466804954541292	0.0	0.989642480270291	-0.3828777443543105	0.0	0.9965213065306363	-0.41885560440374037	0.0	0.9521308869708889	-0.46601856872908826	0.0	0.9504909091400101	-0.5290363713797017	0.0	0.9819423711174275	-0.574866707896333	0.0	0.9979311823666234	-0.4633161904362645	0.0	1.0097240755588797	-0.5171698755590421	0.0	1.0572104239002746	-0.5163831024520241	0.0
